# xmcd
#
# Track frame offsets: 
#        150
#        20529
#        39071
#        62547
#        79294
#        100778
#        112624
#        121187
#        137243
#        157275
#        171634
#        184935
#        201825
#
# Disc length: 2990 seconds
#
# Revision: 0
# Processed by: cddbd v1.5.2PL0 Copyright (c) Steve Scherf et al.
# Submitted via: ExactAudioCopy v0.99pb4
#
DISCID=ac0bac0d
DTITLE=Mountain Sprout - into the sun
DYEAR=2008
DGENRE=Bluegrass
TTITLE0=into the sun
TTITLE1=we smoke it here
TTITLE2=little bird
TTITLE3=watercolors in the rain
TTITLE4=river float
TTITLE5=christian girlfriend
TTITLE6=grampa's fiddle
TTITLE7=never drink again
TTITLE8=town drunk
TTITLE9=shittin in the woods
TTITLE10=pbr in the car
TTITLE11=petro lords
TTITLE12=home
EXTD=
EXTT0=
EXTT1=
EXTT2=
EXTT3=
EXTT4=
EXTT5=
EXTT6=
EXTT7=
EXTT8=
EXTT9=
EXTT10=
EXTT11=
EXTT12=
PLAYORDER=
